<?xml version="1.0" encoding="utf-8"?>
<!-- Generator: Adobe Illustrator 16.0.0, SVG Export Plug-In . SVG Version: 6.00 Build 0)  -->
<!DOCTYPE svg PUBLIC "-//W3C//DTD SVG 1.1//EN" "http://www.w3.org/Graphics/SVG/1.1/DTD/svg11.dtd">
<svg version="1.1" id="Layer_1" xmlns="http://www.w3.org/2000/svg" xmlns:xlink="http://www.w3.org/1999/xlink" x="0px" y="0px"
	 width="500px" height="500px" viewBox="0 0 500 500" enable-background="new 0 0 500 500" xml:space="preserve">
<path fill-rule="evenodd" clip-rule="evenodd" fill="#F6C085" d="M328.874,309.354c-4.385,24.932,10.403,45.699,33.038,50.172
	c22.637,4.465,44.523-9.043,48.904-33.979c4.385-24.937-10.398-48.778-33.033-53.25C355.16,267.824,333.26,284.412,328.874,309.354z
	"/>
<path fill-rule="evenodd" clip-rule="evenodd" fill="#F6C085" d="M170.959,309.354c4.385,24.932-10.399,45.699-33.036,50.172
	c-22.634,4.465-44.524-9.043-48.903-33.979c-4.391-24.937,10.394-48.778,33.026-53.25
	C144.681,267.824,166.574,284.412,170.959,309.354z"/>
<path fill-rule="evenodd" clip-rule="evenodd" fill="#F8C997" d="M362.864,160.86c-22.104-30.021-56.565-49.731-93.147-51.185
	c-0.006,0-0.723-0.031-1.898-0.08l0.043-1.429c0,0-8.869,0.353-18.028,0.718c-9.16-0.365-18.029-0.718-18.029-0.718l0.037,1.429
	c-1.174,0.049-1.893,0.08-1.893,0.08c-36.591,1.454-71.05,21.164-93.144,51.185c-22.117,30.052-25.054,67.896-23.313,104.138
	c1.321,27.387,6.166,71.595,7.527,98.993c35.169,131.548,224.852,133.7,257.63,0c1.355-27.398,6.197-71.606,7.521-98.993
	C387.913,228.756,384.975,190.912,362.864,160.86z"/>
<path fill-rule="evenodd" clip-rule="evenodd" fill="#973823" d="M137.837,211.303c-1.747,3.785,8.297-34.208,30.333-34.863
	c23.068-0.687,166.43,8.034,173.779-1.565c24.293,30.751,42.029,152.67,43.409,152.398c3.229-0.632,3.606-12.58,3.928-15.141
	c2.319-17.979,2.944-36.421,2.932-54.524c-0.037-33.416,9.673-97.769-50.802-137.87c-37.188-24.665-114.074-27.12-156.872-13.155
	c-29.808,9.728-58.387,35.067-69.016,64.587c-11.661,32.413-11.367,57.746-7.523,121.944c0.418,6.964,1.237,13.94,2.205,20.842
	c0.64,4.596,1.231,9.296,2.347,13.799C118.618,352.209,119.193,240.191,137.837,211.303z"/>
<path fill-rule="evenodd" clip-rule="evenodd" fill="#3E3B3A" d="M180.579,329.449c5.836,0,10.598-4.763,10.598-10.601
	c0-5.839-4.762-10.594-10.598-10.594c-5.838,0-10.597,4.755-10.597,10.594C169.982,324.687,174.741,329.449,180.579,329.449z"/>
<path fill-rule="evenodd" clip-rule="evenodd" fill="#3E3B3A" d="M319.083,330.179c5.833,0,10.595-4.762,10.595-10.601
	c0-5.832-4.762-10.594-10.595-10.594c-5.831,0-10.595,4.762-10.595,10.594C308.488,325.417,313.252,330.179,319.083,330.179z"/>
<path fill-rule="evenodd" clip-rule="evenodd" fill="#973823" d="M144.114,289.503c-3.875-5.586,14.22-9.772,32.792-11.097
	c31.151-2.207,48.999,11.708,33.985,12.228C199.674,291.023,145.253,291.141,144.114,289.503z"/>
<path fill-rule="evenodd" clip-rule="evenodd" fill="#973823" d="M349.357,289.805c4.094-5.43-13.815-10.322-32.334-12.363
	c-31.034-3.426-49.415,9.784-34.43,10.892C293.781,289.156,348.164,291.4,349.357,289.805z"/>
<path fill-rule="evenodd" clip-rule="evenodd" fill="#D6825B" d="M284.9,394.328c-6.47,36.408-65.152,36.408-71.625,0
	C230.774,398.354,263.501,398.377,284.9,394.328z"/>
<path fill-rule="evenodd" clip-rule="evenodd" fill="#E5B17D" d="M226.26,372.909c-0.127-0.037-0.148-0.142-0.037-0.321
	c0-0.532,0.3-1.052,0.863-1.54c4.354-8.381,12.917-32.829,16.842-59.714c4.301,0.267-4.265,45.761-7.952,56.622
	c3.728-0.649,8.272-1.033,13.177-1.033c12.667,0,22.934,2.541,22.934,5.665c0,3.129-10.267,5.665-22.934,5.665
	C236.925,378.253,226.932,375.89,226.26,372.909z"/>
<path fill-rule="evenodd" clip-rule="evenodd" fill="#973823" d="M136.554,192.285c-2.442-14.386-14.389-15.202-12.218-32.031
	s27.416-49.669,41.259-62.973c13.841-13.296,30.125-17.645,30.125-17.645s-9.227,14.93-5.429,11.132
	c3.799-3.797,22.797-12.765,30.941-17.923c8.143-5.152,11.944-10.582,10.858-7.868c-1.085,2.715-6.244,12.481-2.442,10.044
	c3.796-2.443,13.841-2.714,25.783-14.658c11.942-11.943,19.538-27.683,18.456-24.967c-1.083,2.708,17.1,24.151,23.069,35.012
	c5.968,10.854,6.784,17.366,8.145,14.379c1.354-2.987,6.785-14.114,6.785-14.114s22.258,19.538,30.941,31.481
	s10.589,20.36,11.671,17.373c1.083-2.987,3.259-10.315,3.259-10.315s11.665,29.043,8.412,43.701
	c-3.254,14.651-10.106,32.821-10.106,32.821s-79.461,20.373-107.688,20.645c-13.365,0.13-99.032-23.477-100.693-30.125
	L136.554,192.285z"/>
</svg>
